<?xml version="1.0" encoding="UTF-8" standalone="no"?>
<!-- Created with Inkscape (http://www.inkscape.org/) -->

<svg
   version="1.1"
   id="svg1"
   width="1365.3333"
   height="1365.3333"
   viewBox="0 0 1365.3333 1365.3333"
   sodipodi:docname="logo_square.eps"
   xmlns:inkscape="http://www.inkscape.org/namespaces/inkscape"
   xmlns:sodipodi="http://sodipodi.sourceforge.net/DTD/sodipodi-0.dtd"
   xmlns="http://www.w3.org/2000/svg"
   xmlns:svg="http://www.w3.org/2000/svg">
  <defs
     id="defs1" />
  <sodipodi:namedview
     id="namedview1"
     pagecolor="#ffffff"
     bordercolor="#000000"
     borderopacity="0.25"
     inkscape:showpageshadow="2"
     inkscape:pageopacity="0.0"
     inkscape:pagecheckerboard="0"
     inkscape:deskcolor="#d1d1d1">
    <inkscape:page
       x="0"
       y="0"
       inkscape:label="1"
       id="page1"
       width="1365.3333"
       height="1365.3333"
       margin="0"
       bleed="0" />
  </sodipodi:namedview>
  <g
     id="g1"
     inkscape:groupmode="layer"
     inkscape:label="1">
    <g
       id="group-R5">
      <path
         id="path2"
         d="M 7967.59,10240 H 2272.41 C 1022.58,10240 0,9217.42 0,7967.59 V 2272.4 C 0,1022.58 1022.58,0 2272.41,0 H 7967.59 C 9217.42,0 10240,1022.58 10240,2272.4 V 7967.59 C 10240,9217.42 9217.42,10240 7967.59,10240"
         style="fill:#ff574d;fill-opacity:1;fill-rule:nonzero;stroke:none"
         transform="matrix(0.13333333,0,0,-0.13333333,0,1365.3333)" />
      <path
         id="path3"
         d="m 8520.47,6353.11 c -142.87,-53.19 -252.78,-87.35 -385.8,-57.07 C 7709.48,7373.95 6680.51,8154.2 5479.18,8216.26 4464.19,8268.69 3558.5,7823.44 2973.15,7108.41 c -26.7,-32.62 -53.29,-65.35 -78.63,-99.06 -2.07,-2.75 -4.35,-5.32 -6.4,-8.06 0.34,0.29 0.7,0.52 1.05,0.82 69.47,58.99 141.75,103.63 215.02,133.51 5.82,2.33 11.61,4.43 17.45,7.08 89.7,33.47 180.72,44 269.98,26.14 432.16,-86.5 657.21,-782.62 502.65,-1554.83 -154.54,-772.21 -630.17,-1328.1 -1062.34,-1241.6 -302.98,60.65 -503.44,421.43 -543.38,897.51 -0.04,0.52 -0.12,1.03 -0.16,1.55 -0.13,-5.16 0.11,-10.41 0,-15.57 -0.82,-39.78 -0.74,-79.76 0,-119.88 0.14,-7.39 -0.18,-14.67 0,-22.06 0.16,-5.93 0.75,-11.73 0.94,-17.64 1.41,-44.63 3.72,-89 7.04,-133.11 1.5,-20.12 3.7,-40.03 5.6,-60.02 2.06,-21.65 4.43,-43.19 6.93,-64.69 40.1,-344.06 136.67,-670.22 281.55,-968.39 18.24,-37.53 8.95,-82.4 -23.44,-108.71 l -83.06,-67.52 c -75.44,-61.32 -108.57,-155.4 -97.21,-245.71 1.93,-15.33 5.42,-30.47 10.01,-45.36 0.52,-1.69 1.13,-3.36 1.68,-5.05 4.79,-14.52 10.58,-28.81 17.79,-42.62 l 15.17,11.55 68.71,52.34 c 34.46,26.25 83.67,19.59 109.91,-14.87 26.24,-34.46 19.58,-83.66 -14.87,-109.9 l -73.59,-56.05 -11.01,-8.39 352.9,-434.17 c 94.39,-116.12 266.62,-133.91 382.75,-39.53 l 77.27,62.81 c 32.77,26.63 79.21,26.24 112.28,0.01 536.74,-425.71 1219.72,-673.17 1958.11,-654.1 623.92,16.11 1198.39,220.44 1671.75,556.44 35.13,24.94 82.53,22.24 113.76,-7.43 l 49.16,-46.67 c 93.14,-88.47 233.64,-97.13 336.82,-29.3 5.56,3.66 11.3,7.68 16.67,11.71 l -1.12,1.05 -62.92,59.17 c -31.59,29.63 -33.18,79.25 -3.56,110.85 29.63,31.59 79.26,33.19 110.85,3.56 l 67.48,-63.28 377.87,397.89 c 103.04,108.51 98.57,281.61 -9.94,384.66 l -78.83,74.87 c -29.71,28.2 -35.92,72.56 -16.06,108.39 281.24,507.37 421.14,1102.71 366.59,1731.91 -7.89,90.96 -20.01,180.73 -35.89,269.26 90.49,83.24 255.95,247.07 320.69,387.5 69.51,150.74 86.91,306.06 -96.7,237.69"
         style="fill:#ffffff;fill-opacity:1;fill-rule:nonzero;stroke:none"
         transform="matrix(0.13333333,0,0,-0.13333333,0,1365.3333)" />
      <path
         id="path4"
         d="m 2798.84,6456.27 c 80.65,68.68 168.74,101.39 253.62,84.4 217.67,-43.57 331.03,-394.2 253.18,-783.16 -77.85,-388.96 -317.42,-668.96 -535.11,-625.4 -147.88,29.61 -247.06,201.34 -271.38,430.16 54.37,-21.14 111,-34.06 167.99,-36.65 157.95,-7.18 261.29,46.01 341.75,153.98 103.88,139.39 25.29,525.65 -111.91,575.66 -106.94,38.98 -170.05,-7.89 -265.15,-14.93 48.02,89.47 105.28,163.38 167.01,215.94 z M 2404.38,5432.51 c 30.64,-368.73 185.76,-648.24 420.29,-695.19 334.17,-66.88 701.93,362.95 821.44,960.06 119.51,597.09 -54.51,1135.36 -388.66,1202.24 -130.3,26.07 -265.53,-24.13 -389.33,-129.56 -135.1,-115.05 -256.36,-296.51 -342.17,-519.29 -2.99,0.78 -5.77,1.26 -8.82,2.13 -42.09,12.06 -64.61,39.48 -93.68,45.71 115.48,124.85 132.91,317.25 31.34,462.19 -117.05,166.99 -347.29,207.48 -514.28,90.45 -150.42,-105.43 -197.01,-302.32 -119.47,-462.48 -68.55,-2.61 -137.19,-23.66 -197.54,-65.96 -167,-117.03 -207.49,-347.28 -90.46,-514.27 117.04,-166.99 347.29,-207.48 514.28,-90.45 53.14,37.25 91.91,86.65 118.43,141.16 55.82,-102.59 138.3,-188.07 233.5,-247.01 -1.44,-61.72 0.32,-121.82 5.13,-179.73"
         style="fill:#ffffff;fill-opacity:1;fill-rule:nonzero;stroke:none"
         transform="matrix(0.13333333,0,0,-0.13333333,0,1365.3333)" />
    </g>
  </g>
</svg>
